{
  "accessors": [
    {
      "bufferView": 2,
      "componentType": 5126,
      "count": 6040,
      "max": [
        1.5025608539581299,
        1.2308638095855713,
        4.905379295349121
      ],
      "min": [
        0.9202555418014526,
        0.648558497428894,
        -0.002434301422908902
      ],
      "type": "VEC3"
    },
    {
      "bufferView": 2,
      "byteOffset": 72480,
      "componentType": 5126,
      "count": 6040,
      "max": [
        1.0,
        1.0,
        1.0
      ],
      "min": [
        -0.9967156648635864,
        -0.9967153072357178,
        -1.0
      ],
      "type": "VEC3"
    },
    {
      "bufferView": 1,
      "componentType": 5126,
      "count": 6040,
      "max": [
        5.452620506286621,
        16.72061538696289
      ],
      "min": [
        -5.452620506286621,
        -3.559159278869629
      ],
      "type": "VEC2"
    },
    {
      "bufferView": 0,
      "componentType": 5125,
      "count": 9249,
      "type": "SCALAR"
    },
    {
      "bufferView": 2,
      "byteOffset": 144960,
      "componentType": 5126,
      "count": 654,
      "max": [
        1.4810857772827148,
        1.2171801328659058,
        4.529532432556152
      ],
      "min": [
        0.9417305588722229,
        0.6622422337532043,
        3.9332845211029053
      ],
      "type": "VEC3"
    },
    {
      "bufferView": 2,
      "byteOffset": 152808,
      "componentType": 5126,
      "count": 654,
      "max": [
        1.0,
        0.9969955682754517,
        1.0
      ],
      "min": [
        -0.9987589716911316,
        -0.9969952702522278,
        -1.0
      ],
      "type": "VEC3"
    },
    {
      "bufferView": 1,
      "byteOffset": 48320,
      "componentType": 5126,
      "count": 654,
      "max": [
        0.8309793472290039,
        2.3299267292022705
      ],
      "min": [
        -0.8309793472290039,
        -0.753763735294342
      ],
      "type": "VEC2"
    },
    {
      "bufferView": 0,
      "byteOffset": 36996,
      "componentType": 5125,
      "count": 1086,
      "type": "SCALAR"
    },
    {
      "bufferView": 2,
      "byteOffset": 160656,
      "componentType": 5126,
      "count": 888,
      "max": [
        1.249526023864746,
        0.9778289794921875,
        4.1002068519592285
      ],
      "min": [
        1.1732903718948364,
        0.9015933871269226,
        4.005207061767578
      ],
      "type": "VEC3"
    },
    {
      "bufferView": 2,
      "byteOffset": 171312,
      "componentType": 5126,
      "count": 888,
      "max": [
        0.9977030754089355,
        0.9977030754089355,
        1.0
      ],
      "min": [
        -0.9977022409439087,
        -0.997702956199646,
        -0.47694501280784607
      ],
      "type": "VEC3"
    },
    {
      "bufferView": 1,
      "byteOffset": 53552,
      "componentType": 5126,
      "count": 888,
      "max": [
        16.407920837402344,
        161.0176239013672
      ],
      "min": [
        -16.407920837402344,
        11.410564422607422
      ],
      "type": "VEC2"
    },
    {
      "bufferView": 0,
      "byteOffset": 41340,
      "componentType": 5125,
      "count": 1362,
      "type": "SCALAR"
    },
    {
      "bufferView": 2,
      "byteOffset": 181968,
      "componentType": 5126,
      "count": 65,
      "max": [
        1.4517054557800293,
        1.2093887329101563,
        4.815820217132568
      ],
      "min": [
        0.9711109399795532,
        0.6700335741043091,
        4.006260871887207
      ],
      "type": "VEC3"
    },
    {
      "bufferView": 2,
      "byteOffset": 182748,
      "componentType": 5126,
      "count": 65,
      "max": [
        1.0,
        0.0,
        1.0
      ],
      "min": [
        0.0,
        0.0,
        0.0
      ],
      "type": "VEC3"
    },
    {
      "bufferView": 1,
      "byteOffset": 60656,
      "componentType": 5126,
      "count": 65,
      "max": [
        1.0,
        1.0
      ],
      "min": [
        0.0,
        0.0
      ],
      "type": "VEC2"
    },
    {
      "bufferView": 0,
      "byteOffset": 46788,
      "componentType": 5125,
      "count": 78,
      "type": "SCALAR"
    }
  ],
  "asset": {
    "extras": {
      "author": "pawlnq (https://sketchfab.com/pawlnq)",
      "license": "CC-BY-4.0 (http://creativecommons.org/licenses/by/4.0/)",
      "source": "https://sketchfab.com/3d-models/street-lamp-f65611997883426bb7c56336b8fd4c36",
      "title": "Street lamp"
    },
    "generator": "Sketchfab-12.66.0",
    "version": "2.0"
  },
  "bufferViews": [
    {
      "buffer": 0,
      "byteLength": 47100,
      "name": "floatBufferViews",
      "target": 34963
    },
    {
      "buffer": 0,
      "byteLength": 61176,
      "byteOffset": 47100,
      "byteStride": 8,
      "name": "floatBufferViews",
      "target": 34962
    },
    {
      "buffer": 0,
      "byteLength": 183528,
      "byteOffset": 108276,
      "byteStride": 12,
      "name": "floatBufferViews",
      "target": 34962
    }
  ],
  "buffers": [
    {
      "byteLength": 291804,
      "uri": "scene.bin"
    }
  ],
  "images": [
    {
      "uri": "textures/Formica_baseColor.jpeg"
    },
    {
      "uri": "textures/material_baseColor.jpeg"
    }
  ],
  "materials": [
    {
      "doubleSided": true,
      "name": "Formica",
      "pbrMetallicRoughness": {
        "baseColorTexture": {
          "index": 0
        },
        "metallicFactor": 0.0,
        "roughnessFactor": 0.6
      }
    },
    {
      "doubleSided": true,
      "name": "material",
      "pbrMetallicRoughness": {
        "baseColorTexture": {
          "index": 1
        },
        "metallicFactor": 0.0,
        "roughnessFactor": 0.6
      }
    },
    {
      "doubleSided": true,
      "name": "Color_C0",
      "pbrMetallicRoughness": {
        "baseColorFactor": [
          1.0,
          0.8980389833450317,
          0.800000011920929,
          1.0
        ],
        "metallicFactor": 0.0,
        "roughnessFactor": 0.6
      }
    },
    {
      "doubleSided": true,
      "name": "Foregrou",
      "pbrMetallicRoughness": {
        "baseColorFactor": [
          0.0,
          0.0,
          0.0,
          1.0
        ],
        "metallicFactor": 0.0,
        "roughnessFactor": 0.6
      }
    }
  ],
  "meshes": [
    {
      "name": "Object_0",
      "primitives": [
        {
          "attributes": {
            "NORMAL": 1,
            "POSITION": 0,
            "TEXCOORD_0": 2
          },
          "indices": 3,
          "material": 0,
          "mode": 4
        }
      ]
    },
    {
      "name": "Object_1",
      "primitives": [
        {
          "attributes": {
            "NORMAL": 5,
            "POSITION": 4,
            "TEXCOORD_0": 6
          },
          "indices": 7,
          "material": 1,
          "mode": 4
        }
      ]
    },
    {
      "name": "Object_2",
      "primitives": [
        {
          "attributes": {
            "NORMAL": 9,
            "POSITION": 8,
            "TEXCOORD_0": 10
          },
          "indices": 11,
          "material": 2,
          "mode": 4
        }
      ]
    },
    {
      "name": "Object_3",
      "primitives": [
        {
          "attributes": {
            "NORMAL": 13,
            "POSITION": 12,
            "TEXCOORD_0": 14
          },
          "indices": 15,
          "material": 3,
          "mode": 4
        }
      ]
    }
  ],
  "nodes": [
    {
      "children": [
        1
      ],
      "matrix": [
        1.0,
        0.0,
        0.0,
        0.0,
        0.0,
        2.220446049250313e-16,
        -1.0,
        0.0,
        0.0,
        1.0,
        2.220446049250313e-16,
        0.0,
        0.0,
        0.0,
        0.0,
        1.0
      ],
      "name": "Sketchfab_model"
    },
    {
      "children": [
        2
      ],
      "name": "latarnia.3ds"
    },
    {
      "children": [
        3
      ],
      "name": "Model"
    },
    {
      "children": [
        4,
        5,
        6,
        7
      ],
      "name": "Component_"
    },
    {
      "mesh": 0,
      "name": "Object_4"
    },
    {
      "mesh": 1,
      "name": "Object_5"
    },
    {
      "mesh": 2,
      "name": "Object_6"
    },
    {
      "mesh": 3,
      "name": "Object_7"
    }
  ],
  "samplers": [
    {
      "magFilter": 9729,
      "minFilter": 9987,
      "wrapS": 10497,
      "wrapT": 10497
    }
  ],
  "scene": 0,
  "scenes": [
    {
      "name": "Sketchfab_Scene",
      "nodes": [
        0
      ]
    }
  ],
  "textures": [
    {
      "sampler": 0,
      "source": 0
    },
    {
      "sampler": 0,
      "source": 1
    }
  ]
}
