{
	"asset":{
		"generator":"Khronos glTF Blender I/O v3.6.28",
		"version":"2.0"
	},
	"scene":0,
	"scenes":[
		{
			"name":"Scene",
			"nodes":[
				0
			]
		}
	],
	"nodes":[
		{
			"mesh":0,
			"name":"untitled",
			"rotation":[
				-0.07294260710477829,
				0.6550028920173645,
				0.08324070274829865,
				0.7474768161773682
			],
			"scale":[
				5.544157028198242,
				4.849575042724609,
				5.273739337921143
			]
		}
	],
	"materials":[
		{
			"doubleSided":true,
			"name":"Material.001",
			"pbrMetallicRoughness":{
				"baseColorFactor":[
					0.5595998167991638,
					0.5595998167991638,
					0.5595998167991638,
					1
				],
				"metallicFactor":0,
				"roughnessFactor":0.5
			}
		}
	],
	"meshes":[
		{
			"name":"untitled",
			"primitives":[
				{
					"attributes":{
						"POSITION":0,
						"NORMAL":1
					},
					"indices":2,
					"material":0
				}
			]
		}
	],
	"accessors":[
		{
			"bufferView":0,
			"componentType":5126,
			"count":65928,
			"max":[
				1.0687028169631958,
				4.848108291625977,
				1.0915815830230713
			],
			"min":[
				-1.1275908946990967,
				-0.131821870803833,
				-1.023706316947937
			],
			"type":"VEC3"
		},
		{
			"bufferView":1,
			"componentType":5126,
			"count":65928,
			"type":"VEC3"
		},
		{
			"bufferView":2,
			"componentType":5125,
			"count":66048,
			"type":"SCALAR"
		}
	],
	"bufferViews":[
		{
			"buffer":0,
			"byteLength":791136,
			"byteOffset":0,
			"target":34962
		},
		{
			"buffer":0,
			"byteLength":791136,
			"byteOffset":791136,
			"target":34962
		},
		{
			"buffer":0,
			"byteLength":264192,
			"byteOffset":1582272,
			"target":34963
		}
	],
	"buffers":[
		{
			"byteLength":1846464,
			"uri":"data:application/octet-stream;base64,"
		}
	]
}
